<svg xmlns="http://www.w3.org/2000/svg" xmlns:xlink="http://www.w3.org/1999/xlink" viewBox="0 0 200 90"><defs><style>.cls-1,.cls-5{fill:none;}.cls-2{fill:#ed5930;}.cls-3{clip-path:url(#clip-path);}.cls-4{fill:#fff;}.cls-5{stroke:#fff;stroke-miterlimit:5.23;stroke-width:0.66px;}</style><clipPath id="clip-path" transform="translate(0 0)"><rect class="cls-1" x="17.68" width="182.32" height="90"/></clipPath></defs><title>PH+Logo1Asset 2</title><g id="Layer_2" data-name="Layer 2"><g id="Layer_1-2" data-name="Layer 1"><rect class="cls-2" width="200" height="90"/><g class="cls-3"><path class="cls-4" d="M162,79.65a3,3,0,0,0,2.25-.91v-2.5h-.42v2.35a2.6,2.6,0,1,1-1.8-4.52,3.1,3.1,0,0,1,1.88.64v-.44a3.17,3.17,0,0,0-1.92-.59,3,3,0,0,0,0,6m-11-.1h.42V74.48l4,5.07h.36V73.77h-.42v5.06l-4-5.06H151Zm-4,0h.42V73.77h-.42Zm-8-.38v-5h1.35a2.53,2.53,0,1,1,0,5Zm-.42.38h1.84a2.9,2.9,0,1,0,0-5.78h-1.84Zm-6.79,0h3.82v-.38h-3.41v-5.4h-.42Zm-4,0h.42V73.77h-.42Zm-5.88.1a2.29,2.29,0,0,0,2.35-2.57V73.77h-.42v3.31c0,1.4-.74,2.18-1.93,2.18s-1.94-.79-1.94-2.18V73.77h-.42v3.31a2.28,2.28,0,0,0,2.36,2.57m-9.71-3.36V74.15h2c.82,0,1.3.39,1.3,1.07s-.47,1.07-1.3,1.07Zm0,2.88V76.65h2.28c1,0,1.51.45,1.51,1.26s-.55,1.26-1.51,1.26Zm-.42.38h2.77c1.21,0,1.9-.64,1.9-1.6A1.46,1.46,0,0,0,115,76.4a1.22,1.22,0,0,0,.81-1.24c0-.86-.6-1.4-1.66-1.4h-2.48Zm-11.22,0h4.09v-.38h-3.67V76.63h2.92v-.39h-2.92v-2.1h3.53v-.38h-4Zm-6.79,0h3.82v-.38H94.12v-5.4H93.7Zm-7.44-3.26V74.15h2c.82,0,1.3.39,1.3,1.07s-.47,1.07-1.3,1.07Zm0,2.88V76.65h2.28c1,0,1.51.45,1.51,1.26s-.55,1.26-1.51,1.26Zm-.42.38H88.6c1.21,0,1.9-.64,1.9-1.6a1.46,1.46,0,0,0-1.34-1.54A1.22,1.22,0,0,0,90,75.16c0-.86-.6-1.4-1.66-1.4H85.84Zm-7.3-2L80,74.27l1.49,3.23Zm-1.36,2h.44l.77-1.68h3.29l.77,1.68h.44l-2.66-5.81h-.39Zm-7.73,0h.42V74.48l4,5.07h.36V73.77h-.42v5.06l-4-5.06h-.37Zm-4,0h.42V73.77h-.42Zm-7.36-2,1.5-3.23L61,77.5Zm-1.36,2h.44l.77-1.68H61.2L62,79.55h.44l-2.66-5.81h-.39Zm-4.06,0h.42v-5.4h2.1v-.38H50.54v.38h2.1Zm-6.74.1C47,79.65,48,79.09,48,78s-1-1.42-2-1.69-1.73-.47-1.73-1.23c0-.55.46-1,1.56-1a3.14,3.14,0,0,1,1.77.53v-.44a3.35,3.35,0,0,0-1.79-.49c-1.3,0-2,.66-2,1.44,0,1,.83,1.3,1.92,1.6s1.76.47,1.76,1.32-.74,1.23-1.73,1.23a3.46,3.46,0,0,1-2.12-.7V79a3.76,3.76,0,0,0,2.15.62m-7.5,0a2.29,2.29,0,0,0,2.35-2.57V73.77h-.42v3.31c0,1.4-.74,2.18-1.93,2.18s-1.94-.79-1.94-2.18V73.77H36v3.31a2.29,2.29,0,0,0,2.36,2.57m-7.64,0c1.12,0,2.13-.55,2.13-1.62s-1-1.42-2-1.69-1.73-.47-1.73-1.23c0-.55.46-1,1.56-1a3.14,3.14,0,0,1,1.77.53v-.44a3.35,3.35,0,0,0-1.79-.49c-1.3,0-2,.66-2,1.44,0,1,.83,1.3,1.92,1.6s1.76.47,1.76,1.32-.74,1.23-1.73,1.23a3.46,3.46,0,0,1-2.12-.7V79a3.76,3.76,0,0,0,2.15.62" transform="translate(0 0)"/><path class="cls-5" d="M162,79.65a3,3,0,0,0,2.25-.91v-2.5h-.42v2.35a2.6,2.6,0,1,1-1.8-4.52,3.1,3.1,0,0,1,1.88.64v-.44a3.17,3.17,0,0,0-1.92-.59,3,3,0,0,0,0,6Zm-11-.1h.42V74.48l4,5.07h.36V73.77h-.42v5.06l-4-5.06H151Zm-4,0h.42V73.77h-.42Zm-8-.38v-5h1.35a2.53,2.53,0,1,1,0,5Zm-.42.38h1.84a2.9,2.9,0,1,0,0-5.78h-1.84Zm-6.79,0h3.82v-.38h-3.41v-5.4h-.42Zm-4,0h.42V73.77h-.42Zm-5.88.1a2.29,2.29,0,0,0,2.35-2.57V73.77h-.42v3.31c0,1.4-.74,2.18-1.93,2.18s-1.94-.79-1.94-2.18V73.77h-.42v3.31A2.28,2.28,0,0,0,121.84,79.65Zm-9.71-3.36V74.15h2c.82,0,1.3.39,1.3,1.07s-.47,1.07-1.3,1.07Zm0,2.88V76.65h2.28c1,0,1.51.45,1.51,1.26s-.55,1.26-1.51,1.26Zm-.42.38h2.77c1.21,0,1.9-.64,1.9-1.6A1.46,1.46,0,0,0,115,76.4a1.22,1.22,0,0,0,.81-1.24c0-.86-.6-1.4-1.66-1.4h-2.48Zm-11.22,0h4.09v-.38h-3.67V76.63h2.92v-.39h-2.92v-2.1h3.53v-.38h-4Zm-6.79,0h3.82v-.38H94.12v-5.4H93.7Zm-7.44-3.26V74.15h2c.82,0,1.3.39,1.3,1.07s-.47,1.07-1.3,1.07Zm0,2.88V76.65h2.28c1,0,1.51.45,1.51,1.26s-.55,1.26-1.51,1.26Zm-.42.38H88.6c1.21,0,1.9-.64,1.9-1.6a1.46,1.46,0,0,0-1.34-1.54A1.22,1.22,0,0,0,90,75.16c0-.86-.6-1.4-1.66-1.4H85.84Zm-7.3-2L80,74.27l1.49,3.23Zm-1.36,2h.44l.77-1.68h3.29l.77,1.68h.44l-2.66-5.81h-.39Zm-7.73,0h.42V74.48l4,5.07h.36V73.77h-.42v5.06l-4-5.06h-.37Zm-4,0h.42V73.77h-.42Zm-7.36-2,1.5-3.23L61,77.5Zm-1.36,2h.44l.77-1.68H61.2L62,79.55h.44l-2.66-5.81h-.39Zm-4.06,0h.42v-5.4h2.1v-.38H50.54v.38h2.1Zm-6.74.1C47,79.65,48,79.09,48,78s-1-1.42-2-1.69-1.73-.47-1.73-1.23c0-.55.46-1,1.56-1a3.14,3.14,0,0,1,1.77.53v-.44a3.35,3.35,0,0,0-1.79-.49c-1.3,0-2,.66-2,1.44,0,1,.83,1.3,1.92,1.6s1.76.47,1.76,1.32-.74,1.23-1.73,1.23a3.46,3.46,0,0,1-2.12-.7V79A3.76,3.76,0,0,0,45.91,79.65Zm-7.5,0a2.29,2.29,0,0,0,2.35-2.57V73.77h-.42v3.31c0,1.4-.74,2.18-1.93,2.18s-1.94-.79-1.94-2.18V73.77H36v3.31A2.29,2.29,0,0,0,38.4,79.65Zm-7.64,0c1.12,0,2.13-.55,2.13-1.62s-1-1.42-2-1.69-1.73-.47-1.73-1.23c0-.55.46-1,1.56-1a3.14,3.14,0,0,1,1.77.53v-.44a3.35,3.35,0,0,0-1.79-.49c-1.3,0-2,.66-2,1.44,0,1,.83,1.3,1.92,1.6s1.76.47,1.76,1.32-.74,1.23-1.73,1.23a3.46,3.46,0,0,1-2.12-.7V79A3.76,3.76,0,0,0,30.76,79.65Z" transform="translate(0 0)"/><path class="cls-4" d="M178.31,64.73h1.92V56.61h8.35V54.79h-8.35V46.67h-1.92v8.13H170v1.81h8.35ZM144.41,69h19.36V67.19H146.41V56.57h15.43V54.76H146.41V44.36h17.16V42.55H144.41Zm-15.51.38c5.19,0,8.93-2.95,8.93-7.22v-.08c0-3.85-2.62-6-8.85-7.29-6.39-1.29-7.85-3-7.85-5.78v-.08c0-2.76,2.62-5,6.58-5a11.72,11.72,0,0,1,8,3L137,45.38a13.57,13.57,0,0,0-9.24-3.21c-5,0-8.66,3-8.66,7v.08c0,4,2.62,6.16,9.08,7.45,6.12,1.21,7.62,2.83,7.62,5.63v.08c0,3-2.77,5.25-6.81,5.25a13.2,13.2,0,0,1-9.66-3.93l-1.31,1.47a15.48,15.48,0,0,0,10.85,4.23m-27.74,0c6.54,0,11-4,11-11.64V42.55h-2V58c0,6.39-3.5,9.64-9,9.64-5.7,0-9.12-3.59-9.12-9.83V42.55h-2V58c0,7.41,4.58,11.41,11,11.41M70.22,67.68c-6.66,0-11.51-5.37-11.51-11.91V55.7c0-6.54,4.77-11.83,11.43-11.83s11.51,5.37,11.51,11.91v.08c0,6.54-4.77,11.83-11.43,11.83m-.08,1.78A13.43,13.43,0,0,0,83.73,55.78s0,0,0-.08a13.55,13.55,0,1,0-27.09.08v.08A13.3,13.3,0,0,0,70.15,69.46M28.59,69h2V56.61H47.83V69h2V42.55h-2V54.79H30.59V42.55h-2Z" transform="translate(0 0)"/><path class="cls-4" d="M169.5,37h19.36V35.14H171.5V24.52h15.43V22.7H171.5V12.31h17.16V10.49H169.5Zm-19.32.19H152l11.85-26.65h-2.12L151.11,34.83,140.57,10.49h-2.23ZM130.37,37h2V10.49h-2Zm-15.78.38c5.19,0,8.93-2.95,8.93-7.22V30c0-3.85-2.62-6-8.85-7.29-6.39-1.29-7.85-3-7.85-5.78v-.08c0-2.76,2.62-5,6.58-5a11.72,11.72,0,0,1,8,3l1.27-1.55a13.57,13.57,0,0,0-9.24-3.21c-5,0-8.66,3-8.66,7v.08c0,4,2.62,6.16,9.08,7.45,6.12,1.21,7.62,2.83,7.62,5.63v.08c0,3-2.77,5.25-6.81,5.25A13.2,13.2,0,0,1,105,31.62l-1.31,1.47a15.48,15.48,0,0,0,10.85,4.23M90,37.33c5.19,0,8.93-2.95,8.93-7.22V30c0-3.85-2.62-6-8.85-7.29-6.39-1.29-7.85-3-7.85-5.78v-.08c0-2.76,2.62-5,6.58-5a11.72,11.72,0,0,1,8,3l1.27-1.55a13.57,13.57,0,0,0-9.24-3.21c-5,0-8.66,3-8.66,7v.08c0,4,2.62,6.16,9.08,7.45,6.12,1.21,7.62,2.83,7.62,5.63v.08c0,3-2.77,5.25-6.81,5.25a13.2,13.2,0,0,1-9.66-3.93L79.11,33.1A15.48,15.48,0,0,0,90,37.33M54.49,27.77,61.6,12.46l7.08,15.31ZM48.14,37h2.08l3.42-7.41H69.53L73,37h2.19L62.6,10.31H60.68ZM30.59,25.27v-13h7.62c4.85,0,8.16,2.19,8.16,6.39v.08c0,3.93-3.39,6.5-8.39,6.5ZM28.59,37h2V27.09h7.27c5.62,0,10.51-2.87,10.51-8.43v-.08c0-5.1-4.08-8.09-10-8.09H28.59Z" transform="translate(0 0)"/></g></g></g></svg>